<svg xmlns="http://www.w3.org/2000/svg" width="300" height="300"><defs><clipPath id="a"><path d="M19 100h9v9h-9zM19 109h9v9h-9zM19 118h9v9h-9zM19 181h9v9h-9zM19 190h9v9h-9zM19 199h9v9h-9zM28 91h9v9h-9zM28 118h9v9h-9zM28 127h9v9h-9zM28 136h9v9h-9zM28 154h9v9h-9zM28 172h9v9h-9zM28 190h9v9h-9zM37 109h9v9h-9zM37 118h9v9h-9zM37 127h9v9h-9zM37 145h9v9h-9zM37 163h9v9h-9zM37 199h9v9h-9zM46 91h9v9h-9zM46 127h9v9h-9zM46 145h9v9h-9zM46 154h9v9h-9zM46 163h9v9h-9zM46 172h9v9h-9zM46 190h9v9h-9zM46 199h9v9h-9zM55 91h9v9h-9zM55 109h9v9h-9zM55 154h9v9h-9zM55 163h9v9h-9zM55 181h9v9h-9zM55 190h9v9h-9zM64 100h9v9h-9zM64 118h9v9h-9zM64 127h9v9h-9zM64 136h9v9h-9zM64 154h9v9h-9zM64 199h9v9h-9zM73 91h9v9h-9zM73 109h9v9h-9zM73 127h9v9h-9zM73 145h9v9h-9zM73 163h9v9h-9zM73 181h9v9h-9zM73 199h9v9h-9zM82 91h9v9h-9zM82 100h9v9h-9zM82 109h9v9h-9zM82 118h9v9h-9zM82 172h9v9h-9zM82 181h9v9h-9zM91 28h9v9h-9zM91 46h9v9h-9zM91 55h9v9h-9zM91 64h9v9h-9zM91 73h9v9h-9zM91 91h9v9h-9zM91 100h9v9h-9zM91 118h9v9h-9zM91 127h9v9h-9zM91 145h9v9h-9zM91 154h9v9h-9zM91 163h9v9h-9zM91 208h9v9h-9zM91 217h9v9h-9zM91 235h9v9h-9zM91 244h9v9h-9zM91 262h9v9h-9zM100 19h9v9h-9zM100 46h9v9h-9zM100 64h9v9h-9zM100 82h9v9h-9zM100 91h9v9h-9zM100 163h9v9h-9zM100 172h9v9h-9zM100 181h9v9h-9zM100 190h9v9h-9zM100 199h9v9h-9zM100 208h9v9h-9zM100 226h9v9h-9zM100 235h9v9h-9zM100 262h9v9h-9zM109 37h9v9h-9zM109 55h9v9h-9zM109 73h9v9h-9zM109 82h9v9h-9zM109 91h9v9h-9zM109 100h9v9h-9zM109 118h9v9h-9zM109 127h9v9h-9zM109 136h9v9h-9zM109 145h9v9h-9zM109 172h9v9h-9zM109 208h9v9h-9zM109 217h9v9h-9zM109 235h9v9h-9zM109 253h9v9h-9zM118 19h9v9h-9zM118 82h9v9h-9zM118 91h9v9h-9zM118 100h9v9h-9zM118 127h9v9h-9zM118 145h9v9h-9zM118 172h9v9h-9zM118 181h9v9h-9zM118 190h9v9h-9zM118 199h9v9h-9zM118 235h9v9h-9zM118 244h9v9h-9zM118 271h9v9h-9zM127 19h9v9h-9zM127 28h9v9h-9zM127 37h9v9h-9zM127 55h9v9h-9zM127 64h9v9h-9zM127 73h9v9h-9zM127 82h9v9h-9zM127 91h9v9h-9zM127 109h9v9h-9zM127 127h9v9h-9zM127 136h9v9h-9zM127 163h9v9h-9zM127 181h9v9h-9zM127 190h9v9h-9zM127 199h9v9h-9zM127 208h9v9h-9zM127 217h9v9h-9zM127 244h9v9h-9zM127 262h9v9h-9zM136 37h9v9h-9zM136 55h9v9h-9zM136 109h9v9h-9zM136 127h9v9h-9zM136 136h9v9h-9zM136 145h9v9h-9zM136 154h9v9h-9zM136 163h9v9h-9zM136 181h9v9h-9zM136 217h9v9h-9zM136 235h9v9h-9zM136 253h9v9h-9zM136 271h9v9h-9zM145 28h9v9h-9zM145 55h9v9h-9zM145 73h9v9h-9zM145 82h9v9h-9zM145 91h9v9h-9zM145 100h9v9h-9zM145 118h9v9h-9zM145 136h9v9h-9zM145 154h9v9h-9zM145 163h9v9h-9zM145 181h9v9h-9zM145 190h9v9h-9zM145 208h9v9h-9zM145 217h9v9h-9zM145 226h9v9h-9zM145 244h9v9h-9zM145 271h9v9h-9zM154 46h9v9h-9zM154 55h9v9h-9zM154 100h9v9h-9zM154 136h9v9h-9zM154 145h9v9h-9zM154 154h9v9h-9zM154 163h9v9h-9zM154 235h9v9h-9zM154 244h9v9h-9zM154 253h9v9h-9zM154 262h9v9h-9zM154 271h9v9h-9zM163 37h9v9h-9zM163 46h9v9h-9zM163 55h9v9h-9zM163 64h9v9h-9zM163 73h9v9h-9zM163 82h9v9h-9zM163 100h9v9h-9zM163 118h9v9h-9zM163 136h9v9h-9zM163 145h9v9h-9zM163 154h9v9h-9zM163 172h9v9h-9zM163 181h9v9h-9zM163 208h9v9h-9zM163 226h9v9h-9zM163 244h9v9h-9zM172 19h9v9h-9zM172 46h9v9h-9zM172 55h9v9h-9zM172 64h9v9h-9zM172 109h9v9h-9zM172 118h9v9h-9zM172 127h9v9h-9zM172 190h9v9h-9zM172 199h9v9h-9zM172 235h9v9h-9zM181 19h9v9h-9zM181 28h9v9h-9zM181 55h9v9h-9zM181 73h9v9h-9zM181 100h9v9h-9zM181 118h9v9h-9zM181 136h9v9h-9zM181 163h9v9h-9zM181 190h9v9h-9zM181 199h9v9h-9zM181 253h9v9h-9zM181 271h9v9h-9zM190 19h9v9h-9zM190 28h9v9h-9zM190 37h9v9h-9zM190 64h9v9h-9zM190 82h9v9h-9zM190 109h9v9h-9zM190 118h9v9h-9zM190 145h9v9h-9zM190 154h9v9h-9zM190 163h9v9h-9zM190 181h9v9h-9zM190 190h9v9h-9zM190 208h9v9h-9zM190 217h9v9h-9zM190 253h9v9h-9zM190 262h9v9h-9zM190 271h9v9h-9zM199 19h9v9h-9zM199 28h9v9h-9zM199 37h9v9h-9zM199 46h9v9h-9zM199 73h9v9h-9zM199 91h9v9h-9zM199 109h9v9h-9zM199 136h9v9h-9zM199 145h9v9h-9zM199 163h9v9h-9zM199 172h9v9h-9zM199 190h9v9h-9zM199 199h9v9h-9zM199 208h9v9h-9zM199 217h9v9h-9zM199 226h9v9h-9zM199 235h9v9h-9zM199 244h9v9h-9zM199 253h9v9h-9zM199 262h9v9h-9zM208 91h9v9h-9zM208 109h9v9h-9zM208 127h9v9h-9zM208 136h9v9h-9zM208 154h9v9h-9zM208 172h9v9h-9zM208 181h9v9h-9zM208 190h9v9h-9zM208 199h9v9h-9zM208 235h9v9h-9zM208 244h9v9h-9zM208 253h9v9h-9zM217 109h9v9h-9zM217 118h9v9h-9zM217 136h9v9h-9zM217 145h9v9h-9zM217 154h9v9h-9zM217 163h9v9h-9zM217 190h9v9h-9zM217 199h9v9h-9zM217 217h9v9h-9zM217 235h9v9h-9zM217 253h9v9h-9zM226 91h9v9h-9zM226 109h9v9h-9zM226 118h9v9h-9zM226 127h9v9h-9zM226 163h9v9h-9zM226 181h9v9h-9zM226 190h9v9h-9zM226 199h9v9h-9zM226 235h9v9h-9zM226 244h9v9h-9zM235 91h9v9h-9zM235 118h9v9h-9zM235 127h9v9h-9zM235 172h9v9h-9zM235 190h9v9h-9zM235 199h9v9h-9zM235 208h9v9h-9zM235 217h9v9h-9zM235 226h9v9h-9zM235 235h9v9h-9zM235 271h9v9h-9zM244 91h9v9h-9zM244 172h9v9h-9zM244 181h9v9h-9zM244 226h9v9h-9zM244 244h9v9h-9zM244 253h9v9h-9zM244 262h9v9h-9zM253 100h9v9h-9zM253 109h9v9h-9zM253 127h9v9h-9zM253 136h9v9h-9zM253 154h9v9h-9zM253 199h9v9h-9zM253 208h9v9h-9zM253 226h9v9h-9zM253 235h9v9h-9zM253 253h9v9h-9zM253 262h9v9h-9zM253 271h9v9h-9zM262 91h9v9h-9zM262 136h9v9h-9zM262 163h9v9h-9zM262 181h9v9h-9zM262 190h9v9h-9zM262 208h9v9h-9zM262 235h9v9h-9zM262 244h9v9h-9zM262 253h9v9h-9zM262 271h9v9h-9zM271 109h9v9h-9zM271 118h9v9h-9zM271 136h9v9h-9zM271 145h9v9h-9zM271 154h9v9h-9zM271 190h9v9h-9zM271 199h9v9h-9zM271 208h9v9h-9zM271 217h9v9h-9zM271 226h9v9h-9zM271 235h9v9h-9zM19 19h9v9h-9zM19 28h9v9h-9zM19 37h9v9h-9zM19 46h9v9h-9zM19 55h9v9h-9zM19 64h9v9h-9zM19 73h9v9h-9zM28 19h9v9h-9zM28 73h9v9h-9zM37 19h9v9h-9zM37 73h9v9h-9zM46 19h9v9h-9zM46 73h9v9h-9zM55 19h9v9h-9zM55 73h9v9h-9zM64 19h9v9h-9zM64 73h9v9h-9zM73 19h9v9h-9zM73 28h9v9h-9zM73 37h9v9h-9zM73 46h9v9h-9zM73 55h9v9h-9zM73 64h9v9h-9zM73 73h9v9h-9zM37 37h9v9h-9zM37 46h9v9h-9zM37 55h9v9h-9zM46 37h9v9h-9zM46 46h9v9h-9zM46 55h9v9h-9zM55 37h9v9h-9zM55 46h9v9h-9zM55 55h9v9h-9zM217 19h9v9h-9zM217 28h9v9h-9zM217 37h9v9h-9zM217 46h9v9h-9zM217 55h9v9h-9zM217 64h9v9h-9zM217 73h9v9h-9zM226 19h9v9h-9zM226 73h9v9h-9zM235 19h9v9h-9zM235 73h9v9h-9zM244 19h9v9h-9zM244 73h9v9h-9zM253 19h9v9h-9zM253 73h9v9h-9zM262 19h9v9h-9zM262 73h9v9h-9zM271 19h9v9h-9zM271 28h9v9h-9zM271 37h9v9h-9zM271 46h9v9h-9zM271 55h9v9h-9zM271 64h9v9h-9zM271 73h9v9h-9zM235 37h9v9h-9zM235 46h9v9h-9zM235 55h9v9h-9zM244 37h9v9h-9zM244 46h9v9h-9zM244 55h9v9h-9zM253 37h9v9h-9zM253 46h9v9h-9zM253 55h9v9h-9zM19 217h9v9h-9zM19 226h9v9h-9zM19 235h9v9h-9zM19 244h9v9h-9zM19 253h9v9h-9zM19 262h9v9h-9zM19 271h9v9h-9zM28 217h9v9h-9zM28 271h9v9h-9zM37 217h9v9h-9zM37 271h9v9h-9zM46 217h9v9h-9zM46 271h9v9h-9zM55 217h9v9h-9zM55 271h9v9h-9zM64 217h9v9h-9zM64 271h9v9h-9zM73 217h9v9h-9zM73 226h9v9h-9zM73 235h9v9h-9zM73 244h9v9h-9zM73 253h9v9h-9zM73 262h9v9h-9zM73 271h9v9h-9zM37 235h9v9h-9zM37 244h9v9h-9zM37 253h9v9h-9zM46 235h9v9h-9zM46 244h9v9h-9zM46 253h9v9h-9zM55 235h9v9h-9zM55 244h9v9h-9zM55 253h9v9h-9z"/></clipPath></defs><path clip-path="url('#clip-path-background-color')" fill="#FFF" d="M0 0h300v300H0z"/><path clip-path="url('#a')" d="M0 0h300v300H0z"/></svg>